<?xml version="1.0" encoding="utf-8"?>
<!-- Generator: Adobe Illustrator 25.4.1, SVG Export Plug-In . SVG Version: 6.00 Build 0)  -->
<svg version="1.1" id="Ebene_1" xmlns="http://www.w3.org/2000/svg" xmlns:xlink="http://www.w3.org/1999/xlink" x="0px" y="0px"
	 viewBox="150 350 310 160" style="enable-background:new 150 350 310 160;" xml:space="preserve">
<style type="text/css">
	.st0{fill:#1D71B8;}
	.st1{fill:none;}
</style>
<g>
	<g>
		<path class="st0" d="M244.49,449.29c7.83,0,14.17-6.35,14.17-14.17V392.6h-14.17l0,42.52h-7.09c-7.83,0-14.17,6.35-14.17,14.17"/>
		<g>
			<path class="st0" d="M357.87,406.77v14.17c0,7.83,6.35,14.17,14.17,14.17V392.6H343.7c-7.83,0-14.17,6.35-14.17,14.17v28.35h0
				c0,7.83,6.35,14.17,14.17,14.17h14.17v14.17h-7.09c-7.83,0-14.17,6.35-14.17,14.17h21.26c7.83,0,14.17-6.35,14.17-14.17v-14.17
				c0-7.83-6.35-14.17-14.17-14.17H343.7l0-28.35"/>
			<path class="st0" d="M350.79,399.69"/>
		</g>
		<path class="st0" d="M287.01,449.29v-21.26h14.17v21.26h14.17v-14.17c0-7.83-6.35-14.17-14.17-14.17v0
			c7.83,0,14.17-6.35,14.17-14.17V392.6h-14.17v21.26h-14.17V392.6h-14.17v14.17c0,7.83,6.35,14.17,14.17,14.17
			c-7.83,0-14.17,6.35-14.17,14.17l0,14.17"/>
	</g>
	<rect x="213.23" y="336.54" class="st1" width="168.81" height="168.81"/>
</g>
</svg>
